/* XPM */
static char * rombo_grigio_xpm[] = {
"32 32 12 1",
" 	c None",
".	c #D9D9D9",
"+	c #7B7B7B",
"@	c #DEDEDE",
"#	c #BFBFBF",
"$	c #575757",
"%	c #717171",
"&	c #7F7F7F",
"*	c #2A2A2A",
"=	c #474747",
"-	c #333333",
";	c #191919",
"                                ",
"               .+               ",
"              @#+$              ",
"             @@@%$$             ",
"            @@@&&%$$            ",
"           @@@&&&&%$$           ",
"          @@@&&&&&&%$$          ",
"         @@@&&&&&&&&%$$         ",
"        @@@&&&&&&&&&&%$$        ",
"       @@@&&&&&&&&&&&&%$$       ",
"      @@@&&&&&&&&&&&&&&%$$      ",
"     @@@&&&&&&&&&&&&&&&&%$$     ",
"    @@@&&&&&&&&&&&&&&&&&&%$$    ",
"   @@@&&&&&&&&&&&&&&&&&&&&%$$   ",
"  @@@&&&&&&&&&&&&&&&&&&&&&&%$$  ",
" .#@&&&&&&&&&&&&&&&&&&&&&&&&%*= ",
" ++%&&&&&&&&&&&&&&&&&&&&&&&&-;; ",
"  $$%&&&&&&&&&&&&&&&&&&&&&&-;;  ",
"   $$%&&&&&&&&&&&&&&&&&&&&-;;   ",
"    $$%&&&&&&&&&&&&&&&&&&-;;    ",
"     $$%&&&&&&&&&&&&&&&&-;;     ",
"      $$%&&&&&&&&&&&&&&-;;      ",
"       $$%&&&&&&&&&&&&-;;       ",
"        $$%&&&&&&&&&&-;;        ",
"         $$%&&&&&&&&-;;         ",
"          $$%&&&&&&-;;          ",
"           $$%&&&&-;;           ",
"            $$%&&-;;            ",
"             $$%-;;             ",
"              $*;;              ",
"               =;               ",
"                                "};
