/* XPM */
static char * rombo_giallo_xpm[] = {
"32 32 13 1",
" 	c None",
".	c #FFFFB3",
"+	c #F7F700",
"@	c #FFFFBC",
"#	c #FFFF7E",
"$	c #F9F900",
"%	c #AFAF00",
"&	c #E3E300",
"*	c #FFFF00",
"=	c #555500",
"-	c #909000",
";	c #676700",
">	c #333300",
"                                ",
"               .+               ",
"              @#$%              ",
"             @@@&%%             ",
"            @@@**&%%            ",
"           @@@****&%%           ",
"          @@@******&%%          ",
"         @@@********&%%         ",
"        @@@**********&%%        ",
"       @@@************&%%       ",
"      @@@**************&%%      ",
"     @@@****************&%%     ",
"    @@@******************&%%    ",
"   @@@********************&%%   ",
"  @@@**********************&%%  ",
" .#@************************&=- ",
" +$&************************;>> ",
"  %%&**********************;>>  ",
"   %%&********************;>>   ",
"    %%&******************;>>    ",
"     %%&****************;>>     ",
"      %%&**************;>>      ",
"       %%&************;>>       ",
"        %%&**********;>>        ",
"         %%&********;>>         ",
"          %%&******;>>          ",
"           %%&****;>>           ",
"            %%&**;>>            ",
"             %%&;>>             ",
"              %=>>              ",
"               ->               ",
"                                "};
